<?xml version="1.0" encoding="UTF-8"?>
<svg width="24" height="24" viewBox="0 0 24 24" fill="none" xmlns="http://www.w3.org/2000/svg">
  <path d="M12 3C16.9706 3 21 4.34315 21 6C21 7.65685 16.9706 9 12 9C7.02944 9 3 7.65685 3 6C3 4.34315 7.02944 3 12 3Z" stroke="currentColor" stroke-width="2"/>
  <path d="M21 12C21 13.6569 16.9706 15 12 15C7.02944 15 3 13.6569 3 12" stroke="currentColor" stroke-width="2"/>
  <path d="M21 18C21 19.6569 16.9706 21 12 21C7.02944 21 3 19.6569 3 18" stroke="currentColor" stroke-width="2"/>
  <path d="M21 6V18" stroke="currentColor" stroke-width="2"/>
  <path d="M3 6V18" stroke="currentColor" stroke-width="2"/>
  <circle cx="8" cy="6" r="1" fill="currentColor"/>
  <circle cx="16" cy="6" r="1" fill="currentColor"/>
  <circle cx="12" cy="12" r="1" fill="currentColor"/>
</svg> 